# xmcd
#
# Track frame offsets:
#	150
#	16910
#	30053
#	46533
#	60951
#
# Disc length: 1065 seconds
#
# Revision: 1
# Processed by: cddbd v1.5.2PL0 Copyright (c) Steve Scherf et al.
# Submitted via: audiograbber 1.83.01
#
DISCID=22042705
DTITLE=Doug Balmain - Nowhere to hide
DYEAR=2014
DGENRE=Americana
TTITLE0=how it came to this
TTITLE1=ain't an elegy
TTITLE2=didn't come cheap
TTITLE3=nowhere to hide
TTITLE4=those eyes
EXTD=
EXTT0=
EXTT1=
EXTT2=
EXTT3=
EXTT4=
PLAYORDER=
